<?xml version="1.0" encoding="iso-8859-1"?>
<!-- Generator: Adobe Illustrator 19.0.0, SVG Export Plug-In . SVG Version: 6.00 Build 0)  -->
<svg version="1.1" id="Capa_1" xmlns="http://www.w3.org/2000/svg" xmlns:xlink="http://www.w3.org/1999/xlink" x="0px" y="0px"
	 viewBox="0 0 512 512" style="enable-background:new 0 0 512 512;" xml:space="preserve">
<path style="fill:#FC1A3A;" d="M443.104,152.522l-89.681,64.186c-51.588,36.591-82.482,96.278-82.482,159.265l-29.993,74.984
	H105.977v-29.993h11.398c31.493,0,58.487-21.596,62.985-50.389c2.4-16.197-1.5-32.394-11.098-45.29
	c-7.198-9.598-16.496-16.496-27.293-20.696c-19.797,51.588-70.886,86.381-126.972,86.381H0v-14.997
	c0-42.592,17.496-82.782,47.79-113.077L54.687,256l-6.898-6.9C17.496,218.809,0,178.616,0,136.027V121.03h14.997
	c56.088,0,107.176,34.791,126.972,86.381c10.798-4.199,20.095-11.098,27.293-20.696c9.598-12.897,13.497-29.095,11.098-45.29
	c-4.498-28.795-31.493-50.389-62.985-50.389h-11.398V61.043h209.954C375.018,61.043,424.808,99.434,443.104,152.522z"/>
<path style="fill:#BC0036;" d="M443.104,152.522l-89.681,64.186c-51.588,36.591-82.482,96.278-82.482,159.265V61.042h44.99
	C375.018,61.043,424.808,99.434,443.104,152.522z"/>
<path style="fill:#FEDB41;" d="M450.902,196.014v15.896l-65.085,55.489c-34.494,25.194-54.889,65.984-54.889,108.576l-29.993,74.984
	c0,0-14.997,0-29.993,0h-29.993v-74.984c0-39.892,10.497-78.583,29.993-112.476c16.195-27.595,38.393-52.189,65.085-71.085
	c32.093-22.795,68.686-35.992,107.077-39.892C448.502,168.12,450.902,190.014,450.902,196.014z"/>
<path style="fill:#FCBF29;" d="M450.902,196.014v15.896l-65.085,55.489c-34.494,25.194-54.889,65.984-54.889,108.576l-29.993,74.984
	c0,0-14.997,0-29.993,0V263.499c16.195-27.595,38.393-52.189,65.085-71.085c32.093-22.795,68.686-35.992,107.077-39.892
	C448.502,168.12,450.902,190.014,450.902,196.014z"/>
<path style="fill:#BC0036;" d="M495.892,360.978c-24.809,0-44.99-20.182-44.99-44.99c0-7.744,0-108.288,0-103.99
	c-29.793,2.683-58.365,13.058-82.951,31.233c-41.959,31.003-67.016,80.636-67.016,132.744v74.984c24.183,0,216.344,0,210.954,0
	v-89.98H495.892z"/>
<rect x="360.922" y="330.988" style="fill:#25255E;" width="29.993" height="29.993"/>
<g>
</g>
<g>
</g>
<g>
</g>
<g>
</g>
<g>
</g>
<g>
</g>
<g>
</g>
<g>
</g>
<g>
</g>
<g>
</g>
<g>
</g>
<g>
</g>
<g>
</g>
<g>
</g>
<g>
</g>
</svg>
